<svg width="157" height="120" viewBox="0 0 157 120" fill="none" xmlns="http://www.w3.org/2000/svg">
<g clip-path="url(#clip0_762_9453)">
<path d="M126.205 108.982C97.3416 127.795 59.3251 121.828 37.5807 96.231C34.5781 92.6704 29.3962 91.9006 25.4735 94.4507L19.3715 98.4443C14.6739 101.524 8.23289 99.6953 5.95675 94.595C-7.50641 65.0521 2.3246 29.3986 30.4616 11.0184C59.3251 -7.79471 97.3416 -1.78027 119.086 23.769C122.089 27.3296 127.27 28.0994 131.193 25.5493L137.295 21.5557C141.993 18.4763 148.385 20.3047 150.71 25.405C164.173 54.8998 154.342 90.6496 126.205 108.982Z" fill="white"/>
<path d="M28.6214 56.1026C29.0572 56.2951 29.4931 56.5357 29.7836 56.8244C30.1226 57.1131 30.3648 57.498 30.5585 57.931C30.7522 58.3641 30.8006 58.8452 30.8006 59.3745C30.8006 59.9038 30.7038 60.3368 30.5585 60.818C30.3648 61.251 30.1226 61.6359 29.7836 61.9246C29.4446 62.2133 29.0572 62.4539 28.5729 62.6463C28.0886 62.8388 27.6043 62.8869 27.0232 62.8869H24.5533V55.8139H27.0716C27.6044 55.8621 28.1371 55.9583 28.6214 56.1026ZM27.0232 62.0208C27.4106 62.0208 27.7981 61.9727 28.1371 61.8284C28.4761 61.7322 28.7666 61.5397 29.0088 61.2991C29.2509 61.0585 29.4446 60.818 29.5899 60.4812C29.7352 60.1443 29.7836 59.8075 29.7836 59.3745C29.7836 58.5084 29.5415 57.8829 29.0572 57.4499C28.5729 57.0168 27.8949 56.7763 27.0232 56.7763H25.6188V61.9727H27.0232V62.0208Z" fill="#2C2B2B"/>
<path d="M42.3751 56.8244H38.3071V58.8452H41.8908V59.7594H38.3071V62.0208H42.5688V62.9832H37.2416V55.9102H42.3751V56.8244Z" fill="#2C2B2B"/>
<path d="M55.3055 62.935H54.2401L50.1237 57.5461V62.935H49.0582V55.8621H50.0268L54.2401 61.3472V55.8621H55.2571V62.935H55.3055Z" fill="#2C2B2B"/>
<path d="M68.0423 56.8244H65.4272V62.935H64.3617V56.8244H61.7466V55.8621H68.0423V56.8244Z" fill="#2C2B2B"/>
<path d="M80.3916 62.935H79.1809L78.5513 61.3472H74.9676L74.338 62.935H73.1273L76.0815 55.8621H77.3406L80.3916 62.935ZM78.1639 60.433L76.8079 56.9687H76.6626L75.2582 60.433H78.1639Z" fill="#2C2B2B"/>
<path d="M90.8038 56.1026C91.2396 56.2951 91.6755 56.5357 91.966 56.8244C92.305 57.1131 92.5472 57.498 92.7409 57.931C92.9346 58.3641 92.983 58.8452 92.983 59.3745C92.983 59.9038 92.8862 60.3368 92.7409 60.818C92.5472 61.251 92.305 61.6359 91.966 61.9246C91.627 62.2133 91.2396 62.4539 90.7553 62.6463C90.271 62.8388 89.7868 62.8869 89.2056 62.8869H86.6873V55.8139H89.2056C89.7868 55.8621 90.3195 55.9583 90.8038 56.1026ZM89.2056 62.0208C89.593 62.0208 89.9805 61.9727 90.3195 61.8284C90.6585 61.7322 90.949 61.5397 91.1912 61.2991C91.4333 61.0585 91.627 60.818 91.7723 60.4812C91.9176 60.1443 91.966 59.8075 91.966 59.3745C91.966 58.5084 91.7239 57.8829 91.2396 57.4499C90.7553 57.0168 90.0773 56.7763 89.2056 56.7763H87.8012V61.9727H89.2056V62.0208Z" fill="#2C2B2B"/>
<path d="M104.557 56.8244H100.489V58.8452H104.073V59.7594H100.489V62.0208H104.751V62.9832H99.424V55.9102H104.557V56.8244Z" fill="#2C2B2B"/>
<path d="M115.405 56.0545C115.744 56.1508 116.035 56.3432 116.229 56.5357C116.471 56.7281 116.665 56.9687 116.761 57.2574C116.907 57.5461 116.955 57.8829 116.955 58.2197C116.955 58.749 116.81 59.182 116.519 59.5188C116.229 59.9038 115.841 60.1443 115.357 60.2887L117.197 62.8869H115.89L114.292 60.5293H112.354V62.8869H111.241V55.8139H114.292C114.727 55.8621 115.115 55.9102 115.405 56.0545ZM114.243 59.6632C114.776 59.6632 115.163 59.5188 115.454 59.2783C115.744 59.0377 115.89 58.6528 115.89 58.2197C115.89 57.7386 115.744 57.4018 115.454 57.1612C115.163 56.9206 114.776 56.8244 114.292 56.8244H112.354V59.6632H114.243Z" fill="#2C2B2B"/>
<path d="M127.174 59.567L129.595 55.8621H130.757V62.935H129.692V57.498H129.595L127.416 60.818H126.883L124.704 57.498H124.607V62.935H123.59V55.8621H124.801L127.174 59.567Z" fill="#2C2B2B"/>
</g>
<defs>
<clipPath id="clip0_762_9453">
<rect width="156.667" height="120" fill="white"/>
</clipPath>
</defs>
</svg>
