<svg width="1556" height="335" viewBox="0 0 1556 335" fill="none" xmlns="http://www.w3.org/2000/svg">
<path opacity="0.3" d="M0.490234 -1.52588e-05V-1.00002H-0.509766V-1.52588e-05H0.490234ZM0.490234 335H-0.509766V336H0.490234V335ZM199.49 328L199.787 328.955L199.802 328.95L199.816 328.945L199.49 328ZM257.49 279L256.58 278.586L256.572 278.604L256.565 278.621L257.49 279ZM260.49 214L261.444 213.699L261.441 213.691L261.439 213.684L260.49 214ZM247.99 189.5L248.797 188.909V188.909L247.99 189.5ZM229.49 171L230.072 170.186L230.058 170.177L230.045 170.168L229.49 171ZM205.99 160H204.99V160.748L205.708 160.959L205.99 160ZM205.99 155L205.543 154.106L204.99 154.382V155H205.99ZM237.49 53L236.571 53.3939L237.49 53ZM216.49 26L215.826 26.7474L215.848 26.7668L215.871 26.7849L216.49 26ZM182.49 6.99998L182.806 6.05125L182.796 6.04796L182.49 6.99998ZM26.4902 312H25.4902V313H26.4902V312ZM26.4902 171V170H25.4902V171H26.4902ZM216.49 190.5L215.81 191.233L215.822 191.244L215.835 191.256L216.49 190.5ZM215.49 293L216.13 293.768L216.133 293.766L215.49 293ZM26.4902 148.5H25.4902V149.5H26.4902V148.5ZM26.4902 23V22H25.4902V23H26.4902ZM214.49 110L215.419 110.371L215.444 110.308L215.46 110.243L214.49 110ZM202.49 130L203.197 130.707L203.214 130.69L203.23 130.673L202.49 130ZM180.99 144L181.323 144.943L181.347 144.934L181.371 144.925L180.99 144ZM133.99 -1.00002H0.490234V0.999985H133.99V-1.00002ZM-0.509766 -1.52588e-05V335H1.49023V-1.52588e-05H-0.509766ZM0.490234 336H147.99V334H0.490234V336ZM147.99 336C167.572 336 185.174 333.49 199.787 328.955L199.194 327.045C184.807 331.51 167.409 334 147.99 334V336ZM199.816 328.945C214.393 323.919 227.025 317.363 236.657 308.745L235.323 307.255C225.955 315.637 213.588 322.081 199.164 327.055L199.816 328.945ZM236.657 308.745C246.236 300.174 253.843 290.555 258.416 279.379L256.565 278.621C252.137 289.445 244.744 298.826 235.323 307.255L236.657 308.745ZM258.401 279.414C263.463 268.277 265.99 256.135 265.99 243.5H263.99C263.99 255.865 261.518 267.723 256.58 278.586L258.401 279.414ZM265.99 243.5C265.99 232.898 264.475 223.297 261.444 213.699L259.537 214.301C262.506 223.703 263.99 233.102 263.99 243.5H265.99ZM261.439 213.684C258.409 204.595 254.364 196.5 248.797 188.909L247.184 190.091C252.617 197.5 256.571 205.405 259.542 214.316L261.439 213.684ZM248.797 188.909C243.239 181.33 237.165 175.253 230.072 170.186L228.909 171.814C235.816 176.747 241.742 182.67 247.184 190.091L248.797 188.909ZM230.045 170.168C222.462 165.112 214.87 161.569 206.272 159.041L205.708 160.959C214.111 163.431 221.519 166.888 228.936 171.832L230.045 170.168ZM206.99 160V155H204.99V160H206.99ZM206.437 155.894C219.644 149.291 229.29 139.13 235.877 126.461L234.103 125.539C227.691 137.87 218.337 147.709 205.543 154.106L206.437 155.894ZM235.877 126.461C242.459 113.804 245.49 100.143 245.49 85.5H243.49C243.49 99.8567 240.521 113.196 234.103 125.539L235.877 126.461ZM245.49 85.5C245.49 73.8449 242.954 63.2111 238.409 52.6061L236.571 53.3939C241.026 63.7889 243.49 74.1551 243.49 85.5H245.49ZM238.409 52.6061C233.84 41.9437 226.733 32.8121 217.11 25.2151L215.871 26.7849C225.248 34.1879 232.141 43.0563 236.571 53.3939L238.409 52.6061ZM217.155 25.2526C208.04 17.1509 196.417 10.5882 182.806 6.0513L182.174 7.94867C195.563 12.4118 206.94 18.8491 215.826 26.7474L217.155 25.2526ZM182.796 6.04796C168.686 1.51247 152.581 -1.00002 133.99 -1.00002V0.999985C152.399 0.999985 168.295 3.48752 182.184 7.95203L182.796 6.04796ZM27.4902 312V171H25.4902V312H27.4902ZM26.4902 172H151.99V170H26.4902V172ZM151.99 172C180.368 172 202.072 178.476 215.81 191.233L217.171 189.767C202.909 176.524 180.613 170 151.99 170V172ZM215.835 191.256C230.586 204.04 237.49 220.748 237.49 242H239.49C239.49 220.252 232.394 202.96 217.145 189.744L215.835 191.256ZM237.49 242C237.49 262.726 230.105 279.438 214.848 292.234L216.133 293.766C231.876 280.562 239.49 263.274 239.49 242H237.49ZM214.85 292.232C200.1 304.524 177.867 311 147.99 311V313C178.113 313 200.881 306.476 216.13 293.768L214.85 292.232ZM147.99 311H26.4902V313H147.99V311ZM27.4902 148.5V23H25.4902V148.5H27.4902ZM26.4902 24H131.99V22H26.4902V24ZM131.99 24C160.652 24 181.905 29.1147 195.971 39.188C209.974 49.2168 216.99 64.2604 216.99 84.5H218.99C218.99 63.7395 211.756 48.0332 197.135 37.562C182.576 27.1352 160.829 22 131.99 22V24ZM216.99 84.5C216.99 93.3897 215.509 101.803 213.52 109.757L215.46 110.243C217.472 102.197 218.99 93.6103 218.99 84.5H216.99ZM213.562 109.629C210.593 117.05 206.649 123.938 201.75 129.327L203.23 130.673C208.331 125.062 212.387 117.95 215.419 110.371L213.562 109.629ZM201.783 129.293C195.888 135.188 189.003 139.619 180.609 143.075L181.371 144.925C189.977 141.381 197.093 136.812 203.197 130.707L201.783 129.293ZM180.657 143.057C172.3 146.007 161.423 147.5 148.99 147.5V149.5C161.558 149.5 172.68 147.993 181.323 144.943L180.657 143.057ZM148.99 147.5H26.4902V149.5H148.99V147.5ZM363.404 -1.52588e-05H364.404V-1.00002H363.404V-1.52588e-05ZM337.404 -1.52588e-05V-1.00002H336.404V-1.52588e-05H337.404ZM337.404 335H336.404V336H337.404V335ZM363.404 335V336H364.404V335H363.404ZM363.404 -1.00002H337.404V0.999985H363.404V-1.00002ZM336.404 -1.52588e-05V335H338.404V-1.52588e-05H336.404ZM337.404 336H363.404V334H337.404V336ZM364.404 335V-1.52588e-05H362.404V335H364.404ZM479.615 -1.52588e-05H480.615V-1.00002H479.615V-1.52588e-05ZM453.615 -1.52588e-05V-1.00002H452.615V-1.52588e-05H453.615ZM453.615 335H452.615V336H453.615V335ZM479.615 335V336H480.615V335H479.615ZM479.615 174.5V173.5H478.615V174.5H479.615ZM704.115 174.5H705.115V173.5H704.115V174.5ZM704.115 335H703.115V336H704.115V335ZM730.115 335V336H731.115V335H730.115ZM730.115 -1.52588e-05H731.115V-1.00002H730.115V-1.52588e-05ZM704.115 -1.52588e-05V-1.00002H703.115V-1.52588e-05H704.115ZM704.115 151.5V152.5H705.115V151.5H704.115ZM479.615 151.5H478.615V152.5H479.615V151.5ZM479.615 -1.00002H453.615V0.999985H479.615V-1.00002ZM452.615 -1.52588e-05V335H454.615V-1.52588e-05H452.615ZM453.615 336H479.615V334H453.615V336ZM480.615 335V174.5H478.615V335H480.615ZM479.615 175.5H704.115V173.5H479.615V175.5ZM703.115 174.5V335H705.115V174.5H703.115ZM704.115 336H730.115V334H704.115V336ZM731.115 335V-1.52588e-05H729.115V335H731.115ZM730.115 -1.00002H704.115V0.999985H730.115V-1.00002ZM703.115 -1.52588e-05V151.5H705.115V-1.52588e-05H703.115ZM704.115 150.5H479.615V152.5H704.115V150.5ZM480.615 151.5V-1.52588e-05H478.615V151.5H480.615ZM846.314 -1.52588e-05H847.314V-1.00002H846.314V-1.52588e-05ZM820.314 -1.52588e-05V-1.00002H819.314V-1.52588e-05H820.314ZM820.314 335H819.314V336H820.314V335ZM846.314 335V336H847.314V335H846.314ZM846.314 -1.00002H820.314V0.999985H846.314V-1.00002ZM819.314 -1.52588e-05V335H821.314V-1.52588e-05H819.314ZM820.314 336H846.314V334H820.314V336ZM847.314 335V-1.52588e-05H845.314V335H847.314ZM936.525 -1.52588e-05V-1.00002H935.525V-1.52588e-05H936.525ZM936.525 335H935.525V336H936.525V335ZM962.525 335V336H963.525V335H962.525ZM962.525 228V227H961.525V228H962.525ZM1119.03 220L1119.36 220.942L1119.03 220ZM1160.03 197L1159.37 196.245L1160.03 197ZM1187.53 161L1188.43 161.421L1188.44 161.409L1187.53 161ZM1188.03 67L1188.93 66.5788L1188.93 66.5662L1188.03 67ZM1162.03 31.5L1162.7 30.76L1162.03 31.5ZM1122.53 7.99998L1122.89 7.06741L1122.86 7.05882L1122.84 7.0513L1122.53 7.99998ZM962.525 205H961.525V206H962.525V205ZM962.525 23V22H961.525V23H962.525ZM1163.53 152L1164.43 152.431L1164.44 152.415L1164.44 152.399L1163.53 152ZM1141.53 181L1142.15 181.785L1142.16 181.775L1142.17 181.765L1141.53 181ZM1108.53 199L1108.83 199.952L1108.85 199.947L1108.86 199.941L1108.53 199ZM1073.53 -1.00002H936.525V0.999985H1073.53V-1.00002ZM935.525 -1.52588e-05V335H937.525V-1.52588e-05H935.525ZM936.525 336H962.525V334H936.525V336ZM963.525 335V228H961.525V335H963.525ZM962.525 229H1068.53V227H962.525V229ZM1068.53 229C1086.62 229 1103.73 226.487 1119.36 220.942L1118.69 219.058C1103.32 224.512 1086.43 227 1068.53 227V229ZM1119.36 220.942C1134.95 215.411 1149.07 207.855 1160.68 197.755L1159.37 196.245C1147.98 206.145 1134.1 213.589 1118.69 219.058L1119.36 220.942ZM1160.68 197.755C1172.28 187.673 1181.87 175.563 1188.43 161.421L1186.62 160.579C1180.18 174.437 1170.78 186.327 1159.37 196.245L1160.68 197.755ZM1188.44 161.409C1195 146.777 1198.53 130.637 1198.53 113H1196.53C1196.53 130.363 1193.05 146.223 1186.61 160.591L1188.44 161.409ZM1198.53 113C1198.53 96.3784 1195.5 80.7309 1188.93 66.5789L1187.12 67.4211C1193.55 81.2691 1196.53 96.6216 1196.53 113H1198.53ZM1188.93 66.5662C1182.38 52.9664 1173.81 40.8577 1162.7 30.76L1161.35 32.2399C1172.25 42.1423 1180.67 54.0335 1187.12 67.4338L1188.93 66.5662ZM1162.7 30.76C1151.59 20.6598 1138.47 13.1015 1122.89 7.06741L1122.16 8.93254C1137.58 14.8985 1150.46 22.3402 1161.35 32.2399L1162.7 30.76ZM1122.84 7.0513C1107.75 2.0197 1091.14 -1.00002 1073.53 -1.00002V0.999985C1090.91 0.999985 1107.3 3.98026 1122.21 8.94865L1122.84 7.0513ZM963.525 205V23H961.525V205H963.525ZM962.525 24H1070.03V22H962.525V24ZM1070.03 24C1100.35 24 1124.59 31.9495 1142.87 47.7563L1144.18 46.2436C1125.46 30.0505 1100.7 22 1070.03 22V24ZM1142.87 47.7563C1161.11 63.5317 1170.03 85.2328 1170.03 113.5H1172.03C1172.03 84.7672 1162.94 62.4682 1144.18 46.2436L1142.87 47.7563ZM1170.03 113.5C1170.03 127.879 1167.55 140.241 1162.61 151.601L1164.44 152.399C1169.5 140.759 1172.03 128.121 1172.03 113.5H1170.03ZM1162.62 151.569C1157.18 162.957 1150.26 172.338 1140.88 180.235L1142.17 181.765C1151.79 173.662 1158.87 164.043 1164.43 152.431L1162.62 151.569ZM1140.91 180.215C1131.5 187.642 1120.6 193.592 1108.19 198.059L1108.86 199.941C1121.46 195.408 1132.55 189.358 1142.15 181.785L1140.91 180.215ZM1108.22 198.048C1095.84 202.011 1081.94 204 1066.53 204V206C1082.11 206 1096.22 203.989 1108.83 199.952L1108.22 198.048ZM1066.53 204H962.525V206H1066.53V204ZM1298.46 -1.52588e-05H1299.46V-1.00002H1298.46V-1.52588e-05ZM1272.46 -1.52588e-05V-1.00002H1271.46V-1.52588e-05H1272.46ZM1272.46 335H1271.46V336H1272.46V335ZM1299.46 335V336H1299.95L1300.25 335.614L1299.46 335ZM1529.46 39H1530.46V36.0832L1528.67 38.3864L1529.46 39ZM1529.46 335H1528.46V336H1529.46V335ZM1555.46 335V336H1556.46V335H1555.46ZM1555.46 -1.52588e-05H1556.46V-1.00002H1555.46V-1.52588e-05ZM1530.46 -1.52588e-05V-1.00002H1529.98L1529.68 -0.616898L1530.46 -1.52588e-05ZM1298.46 296H1297.46V298.897L1299.25 296.617L1298.46 296ZM1298.46 -1.00002H1272.46V0.999985H1298.46V-1.00002ZM1271.46 -1.52588e-05V335H1273.46V-1.52588e-05H1271.46ZM1272.46 336H1299.46V334H1272.46V336ZM1300.25 335.614L1530.25 39.6136L1528.67 38.3864L1298.67 334.386L1300.25 335.614ZM1528.46 39V335H1530.46V39H1528.46ZM1529.46 336H1555.46V334H1529.46V336ZM1556.46 335V-1.52588e-05H1554.46V335H1556.46ZM1555.46 -1.00002H1530.46V0.999985H1555.46V-1.00002ZM1529.68 -0.616898L1297.68 295.383L1299.25 296.617L1531.25 0.616867L1529.68 -0.616898ZM1299.46 296V-1.52588e-05H1297.46V296H1299.46Z" fill="white"/>
</svg>
